0.16m3min_grf.mot
version=1
nRows=17
nColumns 19
inDegrees=yes
endheader
time	1_ground_force_vx	1_ground_force_vy	1_ground_force_vz	1_ground_force_px	1_ground_force_py	1_ground_force_pz	1_ground_torque_x	1_ground_torque_y	1_ground_torque_z	2_ground_force_vx	2_ground_force_vy	2_ground_force_vz	2_ground_force_px	2_ground_force_py	2_ground_force_pz	2_ground_torque_x	2_ground_torque_y	2_ground_torque_z
            3.751500	            0.687106	            1.082317	           -0.134637	           -0.233013	            0.005581	           -0.255695	            0.099198	           -0.258565	            0.046726	            0.050940	           -1.105558	            0.230678	           -0.232311	            0.006130	           -0.833667	           -0.168930	           -0.056789	           -0.150932
            3.752000	            0.504791	            0.900246	            0.277749	           -0.233013	            0.005581	           -0.255695	            0.044179	           -0.147805	            0.058323	            0.328470	           -0.181793	           -0.329293	           -0.232311	            0.006130	           -0.833667	           -0.112344	           -0.113503	           -0.094608
            3.752500	            0.321581	            1.260349	            0.371462	           -0.233013	            0.005581	           -0.255695	            0.077396	           -0.008987	           -0.005391	            0.748022	            0.373012	           -0.562142	           -0.232311	            0.006130	           -0.833667	           -0.112855	            0.019103	           -0.169536
            3.753000	            0.504645	            1.080708	            0.232666	           -0.233013	            0.005581	           -0.255695	            0.177282	            0.111195	            0.021500	            0.657646	           -0.548068	           -0.565387	           -0.232311	            0.006130	           -0.833667	           -0.056976	            0.151645	           -0.169088
            3.753500	            0.824928	            0.721419	           -0.044812	           -0.233013	            0.005581	           -0.255695	            0.095153	            0.037853	           -0.077703	            0.473131	           -1.287179	           -0.051727	           -0.232311	            0.006130	           -0.833667	           -0.094436	            0.123084	           -0.150323
            3.754000	            0.961352	            0.543146	           -0.504485	           -0.233013	            0.005581	           -0.255695	            0.059001	           -0.046103	            0.115878	            0.332602	           -1.287854	           -0.004739	           -0.232311	            0.006130	           -0.833667	           -0.112992	            0.066098	           -0.093967
            3.754500	            0.732266	            1.083505	           -0.409886	           -0.233013	            0.005581	           -0.255695	           -0.001854	           -0.175141	           -0.007105	           -0.089609	           -1.106065	            0.230738	           -0.232311	            0.006130	           -0.833667	            0.000223	           -0.075218	           -0.113371
            3.755000	            0.456573	            1.444966	           -0.636937	           -0.233013	            0.005581	           -0.255695	            0.063948	           -0.267616	           -0.038204	           -0.088218	           -1.474864	            0.370208	           -0.232311	            0.006130	           -0.833667	           -0.150059	           -0.075761	           -0.113307
            3.755500	            0.641997	            0.179996	            0.090892	           -0.233013	            0.005581	           -0.255695	           -0.003895	           -0.092217	            0.045772	            0.286314	           -1.471335	           -0.240017	           -0.232311	            0.006130	           -0.833667	           -0.225362	           -0.038020	           -0.169691
            3.756000	            0.412782	            0.179952	            0.091461	           -0.233013	            0.005581	           -0.255695	            0.108648	            0.009457	            0.017357	            0.704454	           -0.547564	           -0.659263	           -0.232311	            0.006130	           -0.833667	           -0.150290	           -0.009659	           -0.094221
            3.756500	            0.504678	            0.900443	            0.231893	           -0.233013	            0.005581	           -0.255695	            0.083538	            0.111177	            0.021739	            0.799401	           -0.914853	           -0.848330	           -0.232311	            0.006130	           -0.833667	           -0.188134	            0.065827	           -0.093935
            3.757000	            0.962589	            0.000383	           -0.048245	           -0.233013	            0.005581	           -0.255695	            0.133453	            0.046684	            0.040918	            0.849115	           -1.652951	           -0.381697	           -0.232311	            0.006130	           -0.833667	           -0.075626	            0.122950	           -0.093781
            3.757500	            0.732529	           -0.358620	           -0.416070	           -0.233013	            0.005581	           -0.255695	            0.130744	           -0.101652	            0.105720	            0.658536	           -0.734058	           -0.049835	           -0.232311	            0.006130	           -0.833667	           -0.094028	            0.018835	           -0.075293
            3.758000	            0.639654	            0.544460	           -0.824680	           -0.233013	            0.005581	           -0.255695	            0.166213	           -0.184328	           -0.030250	            0.187502	           -0.000160	            0.234561	           -0.232311	            0.006130	           -0.833667	           -0.225373	           -0.019585	           -0.037672
            3.758500	            0.502140	            1.085034	           -0.776164	           -0.233013	            0.005581	           -0.255695	            0.126640	           -0.231098	            0.076553	            0.095255	           -0.369799	            0.514855	           -0.232311	            0.006130	           -0.833667	           -0.037399	           -0.056583	           -0.075587
            3.759000	            0.411496	            0.362381	           -0.412181	           -0.233013	            0.005581	           -0.255695	            0.017226	           -0.017986	           -0.057733	            0.048864	           -0.552443	            0.044937	           -0.232311	            0.006130	           -0.833667	           -0.112429	           -0.094463	           -0.132241
            3.759500	            0.412830	            0.540287	            0.138863	           -0.233013	            0.005581	           -0.255695	            0.200536	            0.110751	            0.111541	            0.094323	           -0.183475	           -0.094553	           -0.232311	            0.006130	           -0.833667	           -0.093868	           -0.009994	            0.056557
